# xmcd
#
# Track frame offsets:
#	150
#	15887
#	32602
#	48927
#	73595
#	90032
#	108168
#	123880
#	137057
#	155643
#	174814
#	191000
#	206294
#	224347
#	242201
#	258470
#	275018
#	291705
#	305662
#	320761
#
# Disc length: 4525 seconds
#
# Revision: 1
# Processed by: cddbd v1.4PL0 Copyright (c) Steve Scherf et al.
# Submitted via: audiograbber 1.82.02
#
DISCID=1d11ab14
DTITLE=Marco Aurélio e Paulo Sérgio - As Melhores
DYEAR=2003
DGENRE=Sertaneja
TTITLE0=Deusa Menina
TTITLE1=Recado Meu
TTITLE2=Escuta
TTITLE3=Seleção de Chamamé - Cachorro de Madame - Casa da Esquina - Cama Fria
TTITLE4=Fogo no Rabo
TTITLE5=As Avenidas
TTITLE6=Magia e Mistério
TTITLE7=Esqueci
TTITLE8=Senhorita
TTITLE9=Seleção de Batidão - Coração Cigano - Trem Bão
TTITLE10=Vou Beber de Novo
TTITLE11=Saudade de Mim
TTITLE12=Te Amo Demais
TTITLE13=Volta pra Mim
TTITLE14=Poeira no Vento
TTITLE15=Raio de Sol
TTITLE16=Pois é
TTITLE17=Paloma Blanca
TTITLE18=Morena Linda de Mato Grosso
TTITLE19=Seleção de Vanerão - A Jiripoca vai Piá - Paixao de Peão
EXTD=As Melhores de Marco Aurélio e Paulo Sérgio.
EXTT0=
EXTT1=
EXTT2=
EXTT3=
EXTT4=
EXTT5=
EXTT6=
EXTT7=
EXTT8=
EXTT9=
EXTT10=
EXTT11=
EXTT12=
EXTT13=
EXTT14=
EXTT15=
EXTT16=
EXTT17=
EXTT18=
EXTT19=
PLAYORDER=
